<?xml version="1.0" encoding="iso-8859-1"?>
<!-- Generator: Adobe Illustrator 16.0.0, SVG Export Plug-In . SVG Version: 6.00 Build 0)  -->
<!DOCTYPE svg PUBLIC "-//W3C//DTD SVG 1.1//EN" "http://www.w3.org/Graphics/SVG/1.1/DTD/svg11.dtd">
<svg version="1.1" id="Capa_1" xmlns="http://www.w3.org/2000/svg" xmlns:xlink="http://www.w3.org/1999/xlink" x="0px" y="0px"
	 width="436px" height="139px" viewBox="0 0 436 139" style="enable-background:new 0 0 436 139;" xml:space="preserve">
<path style="fill:#0583F2;" d="M97.274,37.356c-0.031-3.689-3.011-6.667-6.697-6.698l-0.002-0.008H33.639l-0.002,0.008
	c-3.688,0.031-6.667,3.009-6.698,6.698l-0.006,0.002v57.208l0.006,0.002c0.031,3.688,3.011,6.667,6.697,6.697l0.002,0.008h56.936
	l0.002-0.008c3.688-0.03,6.667-3.009,6.698-6.697l0.006-0.002V37.358L97.274,37.356z"/>
<path d="M117.492,42.077h-0.044c0.01-0.249,0.044-0.493,0.044-0.744c0-17.529-16.922-33.946-34.452-33.946
	c-0.004,0-0.01,0.001-0.015,0.001V7.387L10.322,7.395c0,0,0.019,0.724,0.056,1.082c0.495,4.985,4.258,9.303,8.528,10.153
	c0,0,1.042,0.144,1.466,0.144c0.486,0,61.675-0.016,61.675-0.016v0.01c12.976,0.097,23.556,10.432,23.98,23.329h0.043l0.069,70.729
	c0,0,0.724-0.02,1.082-0.056c4.985-0.496,9.303-4.26,10.153-8.528c0,0,0.144-1.043,0.144-1.467
	C117.518,102.289,117.492,42.077,117.492,42.077z"/>
<path d="M113.743,124.607c-0.496-4.984-4.259-9.304-8.529-10.153c0,0-1.042-0.145-1.466-0.145c-0.486,0-61.675,0.015-61.675,0.015
	v-0.009c-12.976-0.098-23.556-10.433-23.98-23.329h-0.043c0,0-0.102-60.686-0.102-60.796c0-0.424-0.145-1.466-0.145-1.466
	c-0.85-4.271-5.168-8.034-10.153-8.528c-0.357-0.036-1.081-0.056-1.081-0.056l0.103,70.865c-0.009,0.251-0.044,0.493-0.044,0.745
	c0,17.53,16.922,33.946,34.452,33.946c0.004,0,0.01,0,0.015,0l72.703-0.008C113.798,125.688,113.779,124.965,113.743,124.607z"/>
<path style="fill:#0583F2;" d="M423.538,99.106c-0.046,0-0.084,0.011-0.128,0.013H128.904c0,0-0.017,0.165-0.017,0.271
	c0,3.94,3.513,5.43,5.682,5.43c0.046,0,0.084-0.012,0.128-0.014h294.506c0,0,0.017-0.164,0.017-0.271
	C429.22,100.596,425.707,99.106,423.538,99.106z"/>
<g>
	<path d="M129.447,123.721v-12.002h3.007c1.214,0,2.178,0.301,2.891,0.9c0.713,0.602,1.07,1.416,1.07,2.441
		c0,0.699-0.175,1.303-0.524,1.812c-0.35,0.51-0.851,0.891-1.503,1.143c0.383,0.252,0.759,0.596,1.125,1.031
		c0.366,0.436,0.882,1.193,1.546,2.275c0.418,0.682,0.753,1.195,1.005,1.539l0.636,0.859h-2.044l-0.523-0.791
		c-0.017-0.029-0.052-0.078-0.103-0.146l-0.334-0.473l-0.532-0.877l-0.575-0.938c-0.355-0.492-0.68-0.885-0.975-1.176
		s-0.562-0.502-0.8-0.631c-0.238-0.129-0.638-0.193-1.2-0.193h-0.447v5.225H129.447z M131.681,113.178h-0.516v3.789h0.653
		c0.87,0,1.467-0.074,1.791-0.223s0.576-0.373,0.756-0.674c0.18-0.301,0.271-0.645,0.271-1.027c0-0.379-0.101-0.721-0.301-1.027
		c-0.201-0.307-0.482-0.521-0.846-0.648C133.126,113.242,132.523,113.178,131.681,113.178z"/>
	<path d="M145.981,119.906h-5.559c0.04,0.756,0.293,1.357,0.761,1.803c0.466,0.447,1.069,0.672,1.808,0.672
		c1.031,0,1.982-0.322,2.853-0.963v1.529c-0.481,0.32-0.958,0.549-1.431,0.688c-0.472,0.137-1.026,0.205-1.662,0.205
		c-0.871,0-1.575-0.18-2.114-0.541c-0.538-0.361-0.969-0.846-1.293-1.455c-0.324-0.611-0.485-1.316-0.485-2.119
		c0-1.203,0.341-2.18,1.022-2.934s1.566-1.129,2.655-1.129c1.048,0,1.884,0.365,2.509,1.1c0.624,0.732,0.937,1.715,0.937,2.945
		V119.906z M140.457,118.969h3.978c-0.04-0.623-0.226-1.105-0.558-1.443c-0.333-0.338-0.779-0.506-1.34-0.506
		c-0.562,0-1.021,0.168-1.379,0.506S140.565,118.346,140.457,118.969z"/>
	<path d="M146.707,118.549c0-0.842,0.308-1.508,0.923-1.998s1.457-0.734,2.522-0.734h3.256v1.219h-1.598
		c0.31,0.316,0.524,0.602,0.645,0.859s0.181,0.553,0.181,0.885c0,0.414-0.118,0.818-0.353,1.217s-0.537,0.703-0.906,0.914
		c-0.37,0.213-0.975,0.381-1.817,0.508c-0.59,0.086-0.885,0.289-0.885,0.609c0,0.184,0.11,0.334,0.331,0.451
		c0.22,0.117,0.62,0.24,1.198,0.365c0.968,0.213,1.591,0.379,1.869,0.498c0.278,0.121,0.528,0.293,0.752,0.516
		c0.378,0.379,0.567,0.854,0.567,1.426c0,0.75-0.333,1.35-1.001,1.797c-0.667,0.445-1.559,0.67-2.676,0.67
		c-1.128,0-2.029-0.225-2.702-0.676c-0.673-0.449-1.009-1.051-1.009-1.807c0-1.072,0.662-1.762,1.985-2.072
		c-0.527-0.338-0.791-0.672-0.791-1.004c0-0.252,0.113-0.482,0.339-0.688c0.226-0.207,0.531-0.357,0.915-0.455
		C147.288,120.533,146.707,119.699,146.707,118.549z M149.276,124.09c-0.527,0-0.958,0.111-1.293,0.334
		c-0.335,0.225-0.503,0.51-0.503,0.859c0,0.814,0.733,1.221,2.2,1.221c0.693,0,1.23-0.102,1.611-0.305s0.571-0.492,0.571-0.863
		c0-0.367-0.241-0.666-0.722-0.898S150.038,124.09,149.276,124.09z M149.645,117.174c-0.424,0-0.785,0.143-1.083,0.43
		c-0.298,0.285-0.447,0.629-0.447,1.031c0,0.406,0.146,0.742,0.438,1.008c0.292,0.268,0.662,0.4,1.108,0.4
		c0.441,0,0.809-0.137,1.104-0.408c0.295-0.271,0.442-0.611,0.442-1.018c0-0.412-0.149-0.756-0.447-1.031
		S150.092,117.174,149.645,117.174z"/>
	<path d="M154.864,112.49c0.258,0,0.478,0.09,0.662,0.268c0.183,0.178,0.275,0.395,0.275,0.652c0,0.252-0.092,0.471-0.275,0.652
		c-0.184,0.184-0.404,0.275-0.662,0.275c-0.241,0-0.453-0.092-0.636-0.279c-0.184-0.186-0.275-0.402-0.275-0.648
		c0-0.24,0.091-0.453,0.275-0.641C154.412,112.584,154.624,112.49,154.864,112.49z M154.091,115.816h1.564v7.904h-1.564V115.816z"/>
	<path d="M156.965,123.152v-1.684c0.441,0.311,0.892,0.561,1.353,0.752s0.849,0.289,1.164,0.289c0.327,0,0.607-0.082,0.842-0.242
		s0.352-0.352,0.352-0.574c0-0.23-0.076-0.42-0.228-0.572s-0.48-0.371-0.984-0.656c-1.008-0.562-1.668-1.041-1.98-1.439
		c-0.312-0.398-0.468-0.832-0.468-1.303c0-0.605,0.236-1.102,0.708-1.486c0.473-0.383,1.081-0.574,1.826-0.574
		c0.773,0,1.566,0.217,2.38,0.652v1.547c-0.928-0.562-1.687-0.842-2.277-0.842c-0.304,0-0.548,0.064-0.734,0.193
		s-0.279,0.299-0.279,0.512c0,0.184,0.084,0.357,0.253,0.523c0.168,0.168,0.465,0.367,0.889,0.602l0.559,0.318
		c1.317,0.744,1.977,1.568,1.977,2.475c0,0.646-0.253,1.178-0.76,1.592c-0.507,0.416-1.159,0.623-1.955,0.623
		c-0.47,0-0.888-0.051-1.254-0.15C157.981,123.607,157.521,123.422,156.965,123.152z"/>
	<path d="M162.45,117.07l2.938-2.887v1.633h2.5v1.408h-2.5v3.869c0,0.902,0.375,1.355,1.125,1.355c0.561,0,1.154-0.188,1.778-0.559
		v1.461c-0.602,0.338-1.257,0.506-1.967,0.506c-0.716,0-1.312-0.209-1.787-0.627c-0.149-0.125-0.272-0.268-0.37-0.426
		c-0.098-0.156-0.179-0.363-0.245-0.617c-0.066-0.256-0.099-0.74-0.099-1.457v-3.506h-1.375V117.07z"/>
	<path d="M170.53,115.816v1.812l0.086-0.137c0.756-1.221,1.512-1.83,2.268-1.83c0.59,0,1.206,0.297,1.847,0.893l-0.825,1.375
		c-0.544-0.516-1.048-0.773-1.512-0.773c-0.504,0-0.941,0.24-1.31,0.723c-0.37,0.48-0.554,1.051-0.554,1.709v4.133h-1.572v-7.904
		H170.53z"/>
	<path d="M178.602,115.799c1.203,0,2.202,0.389,2.999,1.164c0.796,0.775,1.194,1.752,1.194,2.926c0,1.139-0.404,2.086-1.211,2.84
		c-0.808,0.752-1.824,1.129-3.05,1.129c-1.186,0-2.177-0.383-2.973-1.146c-0.796-0.766-1.194-1.721-1.194-2.865
		c0-1.156,0.402-2.121,1.207-2.891C176.377,116.184,177.387,115.799,178.602,115.799z M178.516,117.207
		c-0.75,0-1.366,0.248-1.847,0.74c-0.481,0.492-0.722,1.119-0.722,1.881c0,0.756,0.246,1.373,0.739,1.852s1.125,0.717,1.899,0.717
		c0.767,0,1.396-0.242,1.886-0.725c0.49-0.484,0.734-1.105,0.734-1.861c0-0.75-0.255-1.371-0.765-1.863
		S179.289,117.207,178.516,117.207z"/>
	<path d="M194.993,117.809h4.029v5.086c-1.478,0.643-2.944,0.963-4.398,0.963c-1.988,0-3.576-0.58-4.764-1.74
		c-1.188-1.158-1.783-2.59-1.783-4.291c0-1.793,0.616-3.285,1.847-4.477s2.775-1.787,4.631-1.787c0.676,0,1.317,0.074,1.924,0.221
		c0.607,0.145,1.375,0.412,2.303,0.803v1.752c-1.432-0.83-2.853-1.246-4.262-1.246c-1.312,0-2.417,0.447-3.316,1.342
		c-0.899,0.893-1.349,1.99-1.349,3.289c0,1.363,0.45,2.479,1.349,3.344c0.899,0.863,2.056,1.297,3.471,1.297
		c0.688,0,1.509-0.158,2.466-0.473l0.163-0.053v-2.5h-2.311V117.809z"/>
	<path d="M207.49,119.906h-5.559c0.04,0.756,0.293,1.357,0.761,1.803c0.466,0.447,1.069,0.672,1.808,0.672
		c1.031,0,1.982-0.322,2.853-0.963v1.529c-0.481,0.32-0.958,0.549-1.431,0.688c-0.472,0.137-1.026,0.205-1.662,0.205
		c-0.871,0-1.575-0.18-2.114-0.541c-0.538-0.361-0.969-0.846-1.293-1.455c-0.324-0.611-0.485-1.316-0.485-2.119
		c0-1.203,0.341-2.18,1.022-2.934s1.566-1.129,2.655-1.129c1.048,0,1.884,0.365,2.509,1.1c0.624,0.732,0.937,1.715,0.937,2.945
		V119.906z M201.965,118.969h3.978c-0.04-0.623-0.226-1.105-0.558-1.443c-0.333-0.338-0.779-0.506-1.34-0.506
		c-0.562,0-1.021,0.168-1.379,0.506S202.074,118.346,201.965,118.969z"/>
	<path d="M210.183,115.816v1.004c0.699-0.771,1.492-1.158,2.38-1.158c0.493,0,0.951,0.127,1.375,0.381
		c0.424,0.256,0.746,0.605,0.967,1.049c0.22,0.443,0.331,1.146,0.331,2.109v4.52h-1.563v-4.502c0-0.809-0.123-1.385-0.37-1.732
		c-0.246-0.346-0.659-0.52-1.237-0.52c-0.739,0-1.366,0.369-1.882,1.109v5.645h-1.598v-7.904H210.183z"/>
	<path d="M223.589,119.906h-5.559c0.04,0.756,0.293,1.357,0.761,1.803c0.467,0.447,1.069,0.672,1.809,0.672
		c1.03,0,1.981-0.322,2.853-0.963v1.529c-0.481,0.32-0.958,0.549-1.431,0.688c-0.473,0.137-1.027,0.205-1.663,0.205
		c-0.87,0-1.575-0.18-2.113-0.541c-0.538-0.361-0.969-0.846-1.293-1.455c-0.324-0.611-0.485-1.316-0.485-2.119
		c0-1.203,0.341-2.18,1.022-2.934s1.566-1.129,2.654-1.129c1.049,0,1.885,0.365,2.509,1.1c0.625,0.732,0.937,1.715,0.937,2.945
		V119.906z M218.065,118.969h3.978c-0.04-0.623-0.227-1.105-0.559-1.443s-0.779-0.506-1.341-0.506s-1.021,0.168-1.378,0.506
		S218.173,118.346,218.065,118.969z"/>
	<path d="M226.394,115.816v1.812l0.086-0.137c0.757-1.221,1.513-1.83,2.269-1.83c0.59,0,1.206,0.297,1.848,0.893l-0.825,1.375
		c-0.544-0.516-1.048-0.773-1.512-0.773c-0.505,0-0.941,0.24-1.311,0.723c-0.369,0.48-0.555,1.051-0.555,1.709v4.133h-1.572v-7.904
		H226.394z"/>
	<path d="M236.089,118.969v3.359c0,0.27,0.092,0.404,0.274,0.404c0.189,0,0.484-0.141,0.886-0.422v0.955
		c-0.355,0.229-0.641,0.385-0.855,0.467c-0.215,0.084-0.439,0.125-0.674,0.125c-0.671,0-1.065-0.264-1.186-0.791
		c-0.665,0.516-1.372,0.773-2.122,0.773c-0.55,0-1.009-0.182-1.375-0.545s-0.55-0.82-0.55-1.371c0-0.498,0.179-0.943,0.537-1.336
		c0.357-0.391,0.866-0.703,1.524-0.932l2.002-0.688v-0.42c0-0.951-0.476-1.428-1.426-1.428c-0.854,0-1.685,0.441-2.492,1.324v-1.711
		c0.607-0.715,1.481-1.072,2.621-1.072c0.854,0,1.538,0.223,2.053,0.67c0.172,0.143,0.327,0.334,0.464,0.57
		c0.138,0.238,0.226,0.477,0.263,0.713C236.07,117.854,236.089,118.305,236.089,118.969z M234.551,122.156v-2.346l-1.048,0.404
		c-0.533,0.213-0.909,0.426-1.13,0.641s-0.331,0.482-0.331,0.803c0,0.326,0.104,0.594,0.313,0.799
		c0.209,0.207,0.48,0.309,0.812,0.309C233.666,122.766,234.127,122.562,234.551,122.156z"/>
	<path d="M238.104,111.719h1.563v12.002h-1.563V111.719z"/>
	<path d="M250.965,111.719h1.572v12.002h-3.343c-1.168,0-2.101-0.369-2.796-1.109c-0.696-0.738-1.044-1.729-1.044-2.973
		c0-1.162,0.365-2.119,1.095-2.869c0.73-0.75,1.663-1.125,2.797-1.125c0.527,0,1.1,0.111,1.719,0.334V111.719z M250.965,122.381
		v-5.01c-0.487-0.246-0.979-0.369-1.479-0.369c-0.778,0-1.398,0.254-1.859,0.764s-0.691,1.197-0.691,2.062
		c0,0.814,0.2,1.441,0.601,1.881c0.241,0.264,0.496,0.441,0.765,0.533c0.27,0.092,0.754,0.139,1.452,0.139H250.965z"/>
	<path d="M260.831,119.906h-5.559c0.04,0.756,0.294,1.357,0.761,1.803c0.467,0.447,1.069,0.672,1.809,0.672
		c1.03,0,1.981-0.322,2.853-0.963v1.529c-0.481,0.32-0.958,0.549-1.431,0.688c-0.473,0.137-1.027,0.205-1.663,0.205
		c-0.87,0-1.575-0.18-2.113-0.541s-0.97-0.846-1.293-1.455c-0.323-0.611-0.485-1.316-0.485-2.119c0-1.203,0.341-2.18,1.022-2.934
		s1.566-1.129,2.654-1.129c1.049,0,1.885,0.365,2.509,1.1c0.625,0.732,0.937,1.715,0.937,2.945V119.906z M255.307,118.969h3.979
		c-0.04-0.623-0.227-1.105-0.559-1.443s-0.779-0.506-1.341-0.506c-0.561,0-1.021,0.168-1.379,0.506
		C255.649,117.863,255.416,118.346,255.307,118.969z"/>
	<path d="M268.572,111.648h1.208l5.381,12.072h-1.758l-1.6-3.557h-5.121l-1.5,3.557h-1.766L268.572,111.648z M271.097,118.635
		l-1.937-4.348l-1.796,4.348H271.097z"/>
	<path d="M280.974,111.719h1.572v12.002h-3.343c-1.168,0-2.101-0.369-2.796-1.109c-0.696-0.738-1.044-1.729-1.044-2.973
		c0-1.162,0.365-2.119,1.095-2.869c0.73-0.75,1.663-1.125,2.797-1.125c0.527,0,1.1,0.111,1.719,0.334V111.719z M280.974,122.381
		v-5.01c-0.487-0.246-0.979-0.369-1.479-0.369c-0.778,0-1.398,0.254-1.859,0.764s-0.691,1.197-0.691,2.062
		c0,0.814,0.2,1.441,0.601,1.881c0.241,0.264,0.496,0.441,0.765,0.533c0.27,0.092,0.754,0.139,1.452,0.139H280.974z"/>
	<path d="M287.838,115.816h2.959v11.934h-1.563v-4.168c-0.683,0.184-1.259,0.275-1.729,0.275c-1.124,0-2.054-0.377-2.788-1.135
		c-0.734-0.756-1.102-1.715-1.102-2.877c0-1.232,0.382-2.211,1.145-2.939C285.521,116.18,286.548,115.816,287.838,115.816z
		 M289.233,122.225v-4.947h-0.99c-0.677,0-1.129,0.029-1.355,0.09c-0.228,0.061-0.424,0.143-0.59,0.248
		c-0.167,0.105-0.319,0.236-0.457,0.391c-0.43,0.486-0.646,1.086-0.646,1.801c0,0.807,0.242,1.465,0.728,1.977
		c0.485,0.514,1.112,0.77,1.882,0.77c0.178,0,0.324-0.012,0.438-0.035c0.115-0.021,0.367-0.098,0.758-0.225l0.12-0.035
		L289.233,122.225z"/>
	<path d="M297.373,123.721v-1.014c-0.332,0.363-0.711,0.646-1.138,0.848s-0.853,0.303-1.276,0.303c-0.498,0-0.958-0.125-1.379-0.373
		c-0.421-0.25-0.738-0.588-0.953-1.014c-0.215-0.428-0.322-1.137-0.322-2.127v-4.527h1.563v4.504c0,0.83,0.119,1.41,0.356,1.738
		s0.654,0.494,1.25,0.494c0.744,0,1.378-0.365,1.898-1.092v-5.645h1.564v7.904H297.373z"/>
	<path d="M301.382,112.49c0.258,0,0.479,0.09,0.661,0.268c0.184,0.178,0.275,0.395,0.275,0.652c0,0.252-0.092,0.471-0.275,0.652
		c-0.183,0.184-0.403,0.275-0.661,0.275c-0.24,0-0.453-0.092-0.636-0.279c-0.184-0.186-0.275-0.402-0.275-0.648
		c0-0.24,0.092-0.453,0.275-0.641C300.929,112.584,301.142,112.49,301.382,112.49z M300.608,115.816h1.563v7.904h-1.563V115.816z"/>
	<path d="M303.481,123.152v-1.684c0.441,0.311,0.892,0.561,1.354,0.752c0.461,0.191,0.849,0.289,1.164,0.289
		c0.326,0,0.606-0.082,0.842-0.242c0.234-0.16,0.353-0.352,0.353-0.574c0-0.23-0.076-0.42-0.229-0.572
		c-0.151-0.152-0.479-0.371-0.983-0.656c-1.008-0.562-1.668-1.041-1.98-1.439c-0.312-0.398-0.468-0.832-0.468-1.303
		c0-0.605,0.236-1.102,0.709-1.486c0.472-0.383,1.081-0.574,1.825-0.574c0.773,0,1.566,0.217,2.38,0.652v1.547
		c-0.928-0.562-1.687-0.842-2.276-0.842c-0.304,0-0.549,0.064-0.735,0.193c-0.186,0.129-0.278,0.299-0.278,0.512
		c0,0.184,0.084,0.357,0.253,0.523c0.168,0.168,0.465,0.367,0.889,0.602l0.559,0.318c1.317,0.744,1.977,1.568,1.977,2.475
		c0,0.646-0.254,1.178-0.761,1.592c-0.507,0.416-1.158,0.623-1.954,0.623c-0.47,0-0.888-0.051-1.255-0.15
		C304.498,123.607,304.037,123.422,303.481,123.152z"/>
	<path d="M310.883,112.49c0.258,0,0.479,0.09,0.661,0.268c0.184,0.178,0.275,0.395,0.275,0.652c0,0.252-0.092,0.471-0.275,0.652
		c-0.183,0.184-0.403,0.275-0.661,0.275c-0.24,0-0.453-0.092-0.636-0.279c-0.184-0.186-0.275-0.402-0.275-0.648
		c0-0.24,0.092-0.453,0.275-0.641C310.43,112.584,310.643,112.49,310.883,112.49z M310.109,115.816h1.563v7.904h-1.563V115.816z"/>
	<path d="M319.298,121.873v1.547c-0.784,0.291-1.552,0.438-2.302,0.438c-1.237,0-2.225-0.367-2.96-1.1
		c-0.736-0.732-1.104-1.715-1.104-2.947c0-1.242,0.358-2.244,1.074-3.006s1.658-1.143,2.826-1.143c0.407,0,0.772,0.037,1.096,0.115
		s0.723,0.223,1.198,0.434v1.668c-0.79-0.504-1.523-0.758-2.199-0.758c-0.704,0-1.283,0.248-1.735,0.744s-0.679,1.127-0.679,1.895
		c0,0.807,0.245,1.449,0.734,1.924c0.49,0.477,1.15,0.713,1.98,0.713C317.829,122.396,318.52,122.223,319.298,121.873z"/>
	<path d="M321.321,112.49c0.258,0,0.479,0.09,0.661,0.268c0.184,0.178,0.275,0.395,0.275,0.652c0,0.252-0.092,0.471-0.275,0.652
		c-0.183,0.184-0.403,0.275-0.661,0.275c-0.24,0-0.453-0.092-0.636-0.279c-0.184-0.186-0.275-0.402-0.275-0.648
		c0-0.24,0.092-0.453,0.275-0.641C320.868,112.584,321.081,112.49,321.321,112.49z M320.548,115.816h1.563v7.904h-1.563V115.816z"/>
	<path d="M327.588,115.799c1.203,0,2.202,0.389,2.998,1.164s1.194,1.752,1.194,2.926c0,1.139-0.403,2.086-1.211,2.84
		c-0.808,0.752-1.824,1.129-3.05,1.129c-1.187,0-2.177-0.383-2.973-1.146c-0.797-0.766-1.194-1.721-1.194-2.865
		c0-1.156,0.402-2.121,1.207-2.891C325.364,116.184,326.373,115.799,327.588,115.799z M327.502,117.207
		c-0.751,0-1.366,0.248-1.848,0.74c-0.48,0.492-0.722,1.119-0.722,1.881c0,0.756,0.247,1.373,0.739,1.852s1.125,0.717,1.898,0.717
		c0.768,0,1.396-0.242,1.886-0.725c0.49-0.484,0.735-1.105,0.735-1.861c0-0.75-0.255-1.371-0.765-1.863
		S328.275,117.207,327.502,117.207z"/>
	<path d="M334.517,115.816v1.004c0.699-0.771,1.492-1.158,2.38-1.158c0.492,0,0.951,0.127,1.375,0.381
		c0.424,0.256,0.746,0.605,0.966,1.049c0.221,0.443,0.331,1.146,0.331,2.109v4.52h-1.563v-4.502c0-0.809-0.123-1.385-0.369-1.732
		c-0.247-0.346-0.659-0.52-1.237-0.52c-0.739,0-1.366,0.369-1.882,1.109v5.645h-1.598v-7.904H334.517z"/>
	<path d="M347.924,119.906h-5.559c0.04,0.756,0.294,1.357,0.761,1.803c0.467,0.447,1.069,0.672,1.809,0.672
		c1.03,0,1.981-0.322,2.853-0.963v1.529c-0.481,0.32-0.958,0.549-1.431,0.688c-0.473,0.137-1.027,0.205-1.663,0.205
		c-0.87,0-1.575-0.18-2.113-0.541s-0.97-0.846-1.293-1.455c-0.323-0.611-0.485-1.316-0.485-2.119c0-1.203,0.341-2.18,1.022-2.934
		s1.566-1.129,2.654-1.129c1.049,0,1.885,0.365,2.509,1.1c0.625,0.732,0.937,1.715,0.937,2.945V119.906z M342.399,118.969h3.979
		c-0.04-0.623-0.227-1.105-0.559-1.443s-0.779-0.506-1.341-0.506c-0.561,0-1.021,0.168-1.379,0.506
		C342.742,117.863,342.509,118.346,342.399,118.969z"/>
	<path d="M348.666,123.152v-1.684c0.441,0.311,0.892,0.561,1.354,0.752c0.461,0.191,0.849,0.289,1.164,0.289
		c0.326,0,0.606-0.082,0.842-0.242c0.234-0.16,0.353-0.352,0.353-0.574c0-0.23-0.076-0.42-0.229-0.572
		c-0.151-0.152-0.479-0.371-0.983-0.656c-1.008-0.562-1.668-1.041-1.98-1.439c-0.312-0.398-0.468-0.832-0.468-1.303
		c0-0.605,0.236-1.102,0.709-1.486c0.472-0.383,1.081-0.574,1.825-0.574c0.773,0,1.566,0.217,2.38,0.652v1.547
		c-0.928-0.562-1.687-0.842-2.276-0.842c-0.304,0-0.549,0.064-0.735,0.193c-0.186,0.129-0.278,0.299-0.278,0.512
		c0,0.184,0.084,0.357,0.253,0.523c0.168,0.168,0.465,0.367,0.889,0.602l0.559,0.318c1.317,0.744,1.977,1.568,1.977,2.475
		c0,0.646-0.254,1.178-0.761,1.592c-0.507,0.416-1.158,0.623-1.954,0.623c-0.47,0-0.888-0.051-1.255-0.15
		C349.683,123.607,349.222,123.422,348.666,123.152z"/>
	<path d="M364.861,111.719h1.572v12.002h-3.343c-1.168,0-2.101-0.369-2.796-1.109c-0.696-0.738-1.044-1.729-1.044-2.973
		c0-1.162,0.365-2.119,1.095-2.869c0.73-0.75,1.663-1.125,2.797-1.125c0.527,0,1.1,0.111,1.719,0.334V111.719z M364.861,122.381
		v-5.01c-0.487-0.246-0.979-0.369-1.479-0.369c-0.778,0-1.398,0.254-1.859,0.764s-0.691,1.197-0.691,2.062
		c0,0.814,0.2,1.441,0.601,1.881c0.241,0.264,0.496,0.441,0.765,0.533c0.27,0.092,0.754,0.139,1.452,0.139H364.861z"/>
	<path d="M374.728,119.906h-5.559c0.04,0.756,0.294,1.357,0.761,1.803c0.467,0.447,1.069,0.672,1.809,0.672
		c1.03,0,1.981-0.322,2.853-0.963v1.529c-0.481,0.32-0.958,0.549-1.431,0.688c-0.473,0.137-1.027,0.205-1.663,0.205
		c-0.87,0-1.575-0.18-2.113-0.541s-0.97-0.846-1.293-1.455c-0.323-0.611-0.485-1.316-0.485-2.119c0-1.203,0.341-2.18,1.022-2.934
		s1.566-1.129,2.654-1.129c1.049,0,1.885,0.365,2.509,1.1c0.625,0.732,0.937,1.715,0.937,2.945V119.906z M369.203,118.969h3.979
		c-0.04-0.623-0.227-1.105-0.559-1.443s-0.779-0.506-1.341-0.506c-0.561,0-1.021,0.168-1.379,0.506
		C369.546,117.863,369.312,118.346,369.203,118.969z"/>
	<path d="M375.892,111.719h1.563v12.002h-1.563V111.719z"/>
	<path d="M383.692,111.719h6.805v1.529h-5.087v3.658h4.915v1.539h-4.915v3.729h5.25v1.529h-6.968V111.719z"/>
	<path d="M391.325,123.152v-1.684c0.441,0.311,0.892,0.561,1.354,0.752c0.461,0.191,0.849,0.289,1.164,0.289
		c0.326,0,0.606-0.082,0.842-0.242c0.234-0.16,0.353-0.352,0.353-0.574c0-0.23-0.076-0.42-0.229-0.572
		c-0.151-0.152-0.479-0.371-0.983-0.656c-1.008-0.562-1.668-1.041-1.98-1.439c-0.312-0.398-0.468-0.832-0.468-1.303
		c0-0.605,0.236-1.102,0.709-1.486c0.472-0.383,1.081-0.574,1.825-0.574c0.773,0,1.566,0.217,2.38,0.652v1.547
		c-0.928-0.562-1.687-0.842-2.276-0.842c-0.304,0-0.549,0.064-0.735,0.193c-0.186,0.129-0.278,0.299-0.278,0.512
		c0,0.184,0.084,0.357,0.253,0.523c0.168,0.168,0.465,0.367,0.889,0.602l0.559,0.318c1.317,0.744,1.977,1.568,1.977,2.475
		c0,0.646-0.254,1.178-0.761,1.592c-0.507,0.416-1.158,0.623-1.954,0.623c-0.47,0-0.888-0.051-1.255-0.15
		C392.342,123.607,391.881,123.422,391.325,123.152z"/>
	<path d="M396.811,117.07l2.938-2.887v1.633h2.5v1.408h-2.5v3.869c0,0.902,0.375,1.355,1.125,1.355c0.562,0,1.154-0.188,1.778-0.559
		v1.461c-0.601,0.338-1.257,0.506-1.967,0.506c-0.716,0-1.312-0.209-1.787-0.627c-0.149-0.125-0.272-0.268-0.369-0.426
		c-0.098-0.156-0.18-0.363-0.245-0.617c-0.066-0.256-0.099-0.74-0.099-1.457v-3.506h-1.375V117.07z"/>
	<path d="M408.182,118.969v3.359c0,0.27,0.092,0.404,0.274,0.404c0.189,0,0.484-0.141,0.886-0.422v0.955
		c-0.355,0.229-0.641,0.385-0.855,0.467c-0.215,0.084-0.439,0.125-0.674,0.125c-0.671,0-1.065-0.264-1.186-0.791
		c-0.665,0.516-1.372,0.773-2.122,0.773c-0.55,0-1.009-0.182-1.375-0.545s-0.55-0.82-0.55-1.371c0-0.498,0.179-0.943,0.537-1.336
		c0.357-0.391,0.866-0.703,1.524-0.932l2.002-0.688v-0.42c0-0.951-0.476-1.428-1.426-1.428c-0.854,0-1.685,0.441-2.492,1.324v-1.711
		c0.607-0.715,1.481-1.072,2.621-1.072c0.854,0,1.538,0.223,2.053,0.67c0.172,0.143,0.327,0.334,0.464,0.57
		c0.138,0.238,0.226,0.477,0.263,0.713C408.163,117.854,408.182,118.305,408.182,118.969z M406.644,122.156v-2.346l-1.048,0.404
		c-0.533,0.213-0.909,0.426-1.13,0.641s-0.331,0.482-0.331,0.803c0,0.326,0.104,0.594,0.313,0.799
		c0.209,0.207,0.48,0.309,0.812,0.309C405.759,122.766,406.22,122.562,406.644,122.156z"/>
	<path d="M415.437,111.719h1.572v12.002h-3.343c-1.168,0-2.101-0.369-2.796-1.109c-0.696-0.738-1.044-1.729-1.044-2.973
		c0-1.162,0.365-2.119,1.095-2.869c0.73-0.75,1.663-1.125,2.797-1.125c0.527,0,1.1,0.111,1.719,0.334V111.719z M415.437,122.381
		v-5.01c-0.487-0.246-0.979-0.369-1.479-0.369c-0.778,0-1.398,0.254-1.859,0.764s-0.691,1.197-0.691,2.062
		c0,0.814,0.2,1.441,0.601,1.881c0.241,0.264,0.496,0.441,0.765,0.533c0.27,0.092,0.754,0.139,1.452,0.139H415.437z"/>
	<path d="M422.348,115.799c1.203,0,2.202,0.389,2.998,1.164s1.194,1.752,1.194,2.926c0,1.139-0.403,2.086-1.211,2.84
		c-0.808,0.752-1.824,1.129-3.05,1.129c-1.187,0-2.177-0.383-2.973-1.146c-0.797-0.766-1.194-1.721-1.194-2.865
		c0-1.156,0.402-2.121,1.207-2.891C420.124,116.184,421.133,115.799,422.348,115.799z M422.262,117.207
		c-0.751,0-1.366,0.248-1.848,0.74c-0.48,0.492-0.722,1.119-0.722,1.881c0,0.756,0.247,1.373,0.739,1.852s1.125,0.717,1.898,0.717
		c0.768,0,1.396-0.242,1.886-0.725c0.49-0.484,0.735-1.105,0.735-1.861c0-0.75-0.255-1.371-0.765-1.863
		S423.035,117.207,422.262,117.207z"/>
</g>
<g>
	<path d="M175.99,65.286c0,0,0.581-0.286,0.865-0.433c8.939-4.668,13.755-13.209,13.755-24.711c0-14.092-6.633-25.558-23.69-28.375
		c-1.254-0.207-7.073,0-9.056,0c-6.782,0-29.246,0-29.246,0v82.125h23.339l0.128-24.492l13.694,18.397c0,0,3.955,6.413,12.906,6.413
		c0.85,0,1.001,0,1.023,0l12.66-0.256L175.99,65.286z M159.182,48.746c-1.675,0-6.567,0-6.567,0V32.633c0,0,5.018,0.001,6.567,0
		c4.343,0,7.865,3.572,7.865,8.057C167.047,45.174,163.525,48.746,159.182,48.746z"/>
</g>
<path d="M246.394,45.274c0,0-0.008,0.028-0.01,0.032c-0.151-0.006-0.294-0.032-0.449-0.032c-4.471,0-8.095,3.542-8.095,6.781
	c0,0.302,0,12.28,0,12.28h12.036c0,0,0.072,0.691,0,0.917c-1.405,4.399-5.201,5.682-10.265,5.682
	c-9.042,0-13.746-7.986-13.746-17.84c0-9.853,5.953-17.839,13.746-17.839c5.012,0,8.867,2.559,11.272,6.563l25.809-9.739
	c-0.012-0.02-0.021-0.041-0.032-0.061c-7.402-12.667-21.332-21.201-37.293-21.201c-23.72,0-42.95,18.846-42.95,42.094
	c0,23.247,16.862,42.094,42.95,42.094c19.679,0,37.369-12.694,41.335-30.669c0.227-1.029,0.477-3.042,0.68-4.154
	c0.19-1.056,0.508-5.376,0.508-5.376v-9.531H246.394z"/>
<path d="M346.427,92.235c2.275,1.813,5.336,1.508,5.336,1.508h20.202l-32.097-82.601H317.06l-31.281,82.601h27.046l5.228-15.967
	h21.48l2.866,8.498C342.398,86.274,343.616,89.995,346.427,92.235z M324.665,57.575l3.968-12.116l4.088,12.116H324.665z"/>
<path d="M420.193,71.592c-0.359,0-1.186,0-1.186,0h-20.812v-8.478H424.1V41.69h-25.904v-7.413h28.348v-22.89h-52.868v82.438h52.909
	c0,0,0-16.217,0-16.461C426.584,74.184,423.744,71.592,420.193,71.592z"/>
</svg>
